<svg width="17" height="20" viewBox="0 0 17 20" fill="none" xmlns="http://www.w3.org/2000/svg">
<path d="M9.4787 14.1937L9.2124 13.3337C8.9942 12.6289 8.8851 12.2765 8.969 11.9982C9.0369 11.7731 9.1859 11.579 9.389 11.4513C9.64 11.2935 10.0197 11.2935 10.7791 11.2935H11.1831C13.7532 11.2935 15.0382 11.2935 15.6452 10.5327C15.7145 10.4458 15.7762 10.3533 15.8296 10.2563C16.2965 9.4079 15.7657 8.2649 14.704 5.9789C13.7297 3.88111 13.2425 2.83222 12.338 2.21485C12.2505 2.15508 12.1605 2.0987 12.0683 2.04586C11.116 1.5 9.9362 1.5 7.5764 1.5H7.0646C4.2057 1.5 2.77628 1.5 1.88814 2.36053C1 3.22106 1 4.60607 1 7.37607V8.3497C1 9.8054 1 10.5332 1.25834 11.1994C1.51668 11.8656 2.01135 12.4134 3.00069 13.5089L7.0921 18.0394C7.1947 18.1531 7.246 18.2099 7.2913 18.2493C7.7135 18.6167 8.3652 18.5754 8.7344 18.1577C8.774 18.1129 8.8172 18.0501 8.9036 17.9245C9.0388 17.728 9.1064 17.6297 9.1654 17.5323C9.6928 16.6609 9.8524 15.6256 9.6108 14.6429C9.5838 14.5331 9.5488 14.4199 9.4787 14.1937Z" stroke="#272727" stroke-width="1.5" stroke-linecap="round" stroke-linejoin="round"/>
</svg>
